<!-- icon666.com - MILLIONS vector ICONS FREE --><svg version="1.1" id="Capa_1" xmlns="http://www.w3.org/2000/svg" xmlns:xlink="http://www.w3.org/1999/xlink" x="0px" y="0px" viewBox="0 0 64 64" style="enable-background:new 0 0 64 64;" xml:space="preserve"><g><g id="learning-listening-understand-mind-mental_1_"><path d="M50.995,41.1L53,21C53,9.42,43.58,0,32,0c-6.191,0-11.747,2.709-15.593,7H12v2h2.809c-2.391,3.424-3.806,7.589-3.805,12.1 l2,20c0.018,0.181,0.085,0.354,0.195,0.5l12,16c0.188,0.252,0.485,0.4,0.8,0.4h12c0.315,0,0.611-0.148,0.8-0.4l12-16 C50.91,41.454,50.977,41.281,50.995,41.1z M37.5,56h-11L14.967,40.623L13,21c0-4.548,1.61-8.726,4.285-12h12.301l-1.293,1.293 l1.414,1.414l3-3c0.391-0.391,0.391-1.023,0-1.414l-3-3l-1.414,1.414L29.586,7H19.2c3.381-3.094,7.867-5,12.8-5 c10.477,0,19,8.523,19.005,18.9l-1.972,19.723L37.5,56z"></path><path d="M40,12c-4.288,0-8.59,5.144-8.771,5.363C30.163,18.653,26.786,22,24,22c-3.038,0-5-1.57-5-4s1.962-4,5-4 c1.88,0,3.941,1.48,5.339,2.721l1.328-1.495C29.01,13.754,26.508,12,24,12c-4.122,0-7,2.467-7,6s2.878,6,7,6 c4.288,0,8.59-5.144,8.771-5.363C33.837,17.347,37.214,14,40,14c3.038,0,5,1.57,5,4s-1.962,4-5,4 c-1.877,0-3.938-1.478-5.335-2.718l-1.327,1.496C34.994,22.248,37.495,24,40,24c4.122,0,7-2.467,7-6S44.122,12,40,12z"></path><path d="M0.628,62.071C0.249,62.224,0,62.591,0,63v1h2v-0.323l19.372-7.749l-0.743-1.857L0.628,62.071z"></path><path d="M63.372,62.071l-20-8l-0.743,1.857L62,63.677V64h2v-1C64,62.591,63.751,62.224,63.372,62.071z"></path><path d="M31.293,23.293l-3,3l1.414,1.414L31,26.414V34h2v-7.586l1.293,1.293l1.414-1.414l-3-3 C32.316,22.902,31.684,22.902,31.293,23.293z"></path><path d="M7.293,16.293l1.414,1.414l3-3c0.391-0.391,0.391-1.023,0-1.414l-3-3l-1.414,1.414L8.586,13H4v2h4.586L7.293,16.293z"></path><path d="M3.293,30.293l1.414,1.414l3-3c0.391-0.391,0.391-1.023,0-1.414l-3-3l-1.414,1.414L4.586,27H0v2h4.586L3.293,30.293z"></path><path d="M52.293,7.707l1.414-1.414L52.414,5H56V3h-3.586l1.293-1.293l-1.414-1.414l-3,3c-0.391,0.391-0.391,1.023,0,1.414 L52.293,7.707z"></path><path d="M59.707,35.707l-1.414-1.414l-3,3c-0.391,0.391-0.391,1.023,0,1.414l3,3l1.414-1.414L58.414,39H64v-2h-5.586 L59.707,35.707z"></path><path d="M53.293,20.707l3,3l1.414-1.414L56.414,21H62v-2h-5.586l1.293-1.293l-1.414-1.414l-3,3 C52.902,19.684,52.902,20.316,53.293,20.707z"></path><rect y="13" width="2" height="2"></rect><rect x="8" y="7" width="2" height="2"></rect><rect x="4" y="7" width="2" height="2"></rect><rect x="58" y="3" width="2" height="2"></rect><rect x="62" y="3" width="2" height="2"></rect><rect y="7" width="2" height="2"></rect><rect x="5" y="1" width="8" height="2"></rect><rect x="15" y="1" width="2" height="2"></rect><rect x="4" y="18" width="2" height="2"></rect><rect y="18" width="2" height="2"></rect><rect x="31" y="36" width="2" height="2"></rect><rect x="31" y="40" width="2" height="2"></rect><rect x="31" y="44" width="2" height="2"></rect><path d="M39.293,26.293l-3,3l1.414,1.414L39,29.414V37h2v-7.586l1.293,1.293l1.414-1.414l-3-3 C40.316,25.902,39.684,25.902,39.293,26.293z"></path><rect x="39" y="39" width="2" height="2"></rect><rect x="39" y="43" width="2" height="2"></rect><path d="M23.293,26.293l-3,3l1.414,1.414L23,29.414V37h2v-7.586l1.293,1.293l1.414-1.414l-3-3 C24.316,25.902,23.684,25.902,23.293,26.293z"></path><rect x="23" y="39" width="2" height="2"></rect><rect x="23" y="43" width="2" height="2"></rect></g><g id="Layer_1_15_"></g></g></svg>