<!-- icon666.com - MILLIONS vector ICONS FREE --><svg version="1.1" id="Capa_1" xmlns="http://www.w3.org/2000/svg" xmlns:xlink="http://www.w3.org/1999/xlink" x="0px" y="0px" viewBox="0 0 512 512" style="enable-background:new 0 0 512 512;" xml:space="preserve"><g><g><path d="M448,438h-0.914V82c0-0.277-0.02-0.549-0.042-0.819C453.892,72.624,458,61.786,458,50c0-27.57-22.43-50-50-50 c-11.895,0-22.827,4.182-31.42,11.144c-0.193-0.011-0.384-0.029-0.58-0.029H68.5c-2.643,0-5.178,1.046-7.051,2.909L2.95,72.196 C0.078,75.051-0.789,79.357,0.756,83.1c1.545,3.743,5.195,6.186,9.244,6.186h130.333v21.791c-11.641,4.127-20,15.249-20,28.287 c0,9.761,4.688,18.446,11.93,23.928L69.555,226H30c-16.542,0-30,13.458-30,30v212c0,5.522,4.478,10,10,10h280 c5.522,0,10-4.478,10-10V256c0-16.542-13.458-30-30-30h-38.889l-62.708-62.708c7.241-5.482,11.93-14.167,11.93-23.928 c0-5.523-4.478-10-10-10c-5.522,0-10,4.477-10,10c0,5.514-4.486,10-10,10c-5.514,0-10-4.486-10-10c0-5.514,4.486-10,10-10 c5.522,0,10-4.477,10-10V89.286h208.581V438H368c-35.29,0-64,28.71-64,64c0,5.522,4.478,10,10,10h188c5.522,0,10-4.478,10-10 C512,466.71,483.29,438,448,438z M280,458H20V303.25h260V458z M270,246c5.514,0,10,4.486,10,10v27.25H20V256 c0-5.514,4.486-10,10-10H270z M150.334,173.506L202.827,226H97.84L150.334,173.506z M34.239,69.287L68.49,35.228l34.059,34.059 H34.239z M126.691,65.144l-34.03-34.03h68.059L126.691,65.144z M150.833,69.286l34.03-34.03l34.03,34.03H150.833z M209.005,31.114 h68.059l-34.029,34.03L209.005,31.114z M267.177,69.287l34.029-34.03l34.03,34.03H267.177z M360.85,66.617l-35.502-35.502h36.367 C359.327,36.946,358,43.319,358,50C358,55.824,359.011,61.414,360.85,66.617z M408,20c16.542,0,30,13.458,30,30s-13.458,30-30,30 s-30-13.458-30-30S391.458,20,408,20z M427.086,413.971V438h-24.029L427.086,413.971z M388.915,423.857v-68.059l34.029,34.03 L388.915,423.857z M393.057,331.657l34.029-34.03v68.059L393.057,331.657z M388.915,307.514v-68.058l34.029,34.029 L388.915,307.514z M393.057,215.313l34.029-34.029v68.058L393.057,215.313z M388.915,191.17v-68.059l34.029,34.03L388.915,191.17z M391.163,97.075C396.427,98.964,402.094,100,408,100c6.757,0,13.201-1.354,19.086-3.794v36.793L391.163,97.075z M325.147,492 c4.539-19.461,22.03-34,42.854-34h80c20.823,0,38.314,14.539,42.854,34H325.147z"></path></g></g><g><g><path d="M71.94,258.93c-1.859-1.86-4.439-2.93-7.069-2.93c-2.63,0-5.21,1.069-7.07,2.93c-1.86,1.861-2.93,4.44-2.93,7.07 s1.069,5.21,2.93,7.069c1.86,1.861,4.44,2.931,7.07,2.931c2.63,0,5.21-1.07,7.069-2.931c1.87-1.859,2.931-4.439,2.931-7.069 S73.81,260.79,71.94,258.93z"></path></g></g><g><g><path d="M115.069,258.93C113.21,257.07,110.63,256,108,256s-5.21,1.069-7.07,2.93C99.07,260.791,98,263.37,98,266 s1.069,5.21,2.93,7.069c1.861,1.861,4.441,2.931,7.07,2.931c2.63,0,5.21-1.07,7.069-2.931C116.93,271.21,118,268.63,118,266 S116.93,260.79,115.069,258.93z"></path></g></g><g><g><path d="M158.2,258.93c-1.86-1.86-4.44-2.93-7.07-2.93c-2.64,0-5.21,1.069-7.08,2.93c-1.86,1.86-2.92,4.44-2.92,7.07 s1.06,5.21,2.92,7.069c1.87,1.861,4.45,2.931,7.08,2.931s5.21-1.07,7.07-2.931c1.859-1.859,2.93-4.439,2.93-7.069 S160.06,260.79,158.2,258.93z"></path></g></g><g><g><path d="M256,325.25H44c-5.522,0-10,4.478-10,10v56c0,5.522,4.478,10,10,10h212c5.522,0,10-4.478,10-10v-56 C266,329.728,261.523,325.25,256,325.25z M246,381.25H54v-36h192V381.25z"></path></g></g><g><g><path d="M170.73,424.43c-1.859-1.86-4.44-2.93-7.069-2.93c-2.641,0-5.21,1.069-7.07,2.93c-1.87,1.86-2.93,4.44-2.93,7.07 s1.06,5.21,2.93,7.069c1.86,1.86,4.43,2.931,7.07,2.931c2.63,0,5.21-1.07,7.069-2.931c1.86-1.859,2.931-4.439,2.931-7.069 S172.591,426.29,170.73,424.43z"></path></g></g><g><g><path d="M125.667,421.5H44c-5.522,0-10,4.478-10,10c0,5.522,4.478,10,10,10h81.667c5.522,0,10-4.478,10-10 C135.667,425.978,131.19,421.5,125.667,421.5z"></path></g></g><g><g><path d="M256,421.5h-43.667c-5.522,0-10,4.478-10,10c0,5.522,4.478,10,10,10H256c5.522,0,10-4.478,10-10 C266,425.978,261.523,421.5,256,421.5z"></path></g></g><g><g><path d="M408.383,40H408c-5.522,0-10,4.477-10,10s4.478,10,10,10h0.383c5.522,0,10-4.477,10-10S413.905,40,408.383,40z"></path></g></g><g><g><path d="M338.915,152.927c-5.522,0-10,4.478-10,10v93.146c0,5.523,4.478,10,10,10c5.522,0,10-4.477,10-10v-93.146 C348.915,157.404,344.437,152.927,338.915,152.927z"></path></g></g><g><g><path d="M345.98,108.86c-1.859-1.87-4.43-2.93-7.069-2.93c-2.63,0-5.21,1.06-7.07,2.93c-1.86,1.86-2.93,4.44-2.93,7.07 s1.069,5.21,2.93,7.07c1.86,1.86,4.44,2.93,7.07,2.93c2.64,0,5.21-1.07,7.069-2.93c1.87-1.86,2.931-4.44,2.931-7.07 S347.85,110.72,345.98,108.86z"></path></g></g></svg>